<svg width="29" height="35" viewBox="0 0 29 35" fill="none" xmlns="http://www.w3.org/2000/svg">
<g filter="url(#filter0_d_1_259)">
<path fill-rule="evenodd" clip-rule="evenodd" d="M18.4111 0C18.4111 0 16.7584 2.86422 18.1905 5.79492C19.6233 8.72557 20.8797 11.0351 20.5921 13.4994C20.5921 13.4994 21.3194 9.50301 25 8.45895C25 8.45895 23.6339 11.0563 24.3827 14.7207C25.1316 18.384 23.4346 25.2228 16.4703 27C16.4703 27 22.6417 23.6916 18.2114 18.3182C18.2114 18.3182 18.1014 20.9611 15.82 21.7486C15.82 21.7486 19.4121 15.5875 14.1229 9.85858C14.1229 9.85858 15.3351 13.8331 11.2797 17.2303C7.22435 20.6275 9.23037 26.0889 11.5663 26.844C11.5663 26.844 -1.17314 21.1153 6.4088 9.30423C6.4088 9.30423 6.67375 11.9905 8.61312 13.0347C8.61312 13.0347 8.32651 1.51112 18.4104 0.00153438L18.4111 0Z" fill="url(#paint0_linear_1_259)"/>
</g>
<defs>
<filter id="filter0_d_1_259" x="0" y="0" width="29" height="35" filterUnits="userSpaceOnUse" color-interpolation-filters="sRGB">
<feFlood flood-opacity="0" result="BackgroundImageFix"/>
<feColorMatrix in="SourceAlpha" type="matrix" values="0 0 0 0 0 0 0 0 0 0 0 0 0 0 0 0 0 0 127 0" result="hardAlpha"/>
<feOffset dy="4"/>
<feGaussianBlur stdDeviation="2"/>
<feComposite in2="hardAlpha" operator="out"/>
<feColorMatrix type="matrix" values="0 0 0 0 0 0 0 0 0 0 0 0 0 0 0 0 0 0 0.25 0"/>
<feBlend mode="normal" in2="BackgroundImageFix" result="effect1_dropShadow_1_259"/>
<feBlend mode="normal" in="SourceGraphic" in2="effect1_dropShadow_1_259" result="shape"/>
</filter>
<linearGradient id="paint0_linear_1_259" x1="27.2647" y1="13.5" x2="0.5" y2="13.5" gradientUnits="userSpaceOnUse">
<stop stop-color="#FF694E"/>
<stop offset="1" stop-color="#FF3A15"/>
</linearGradient>
</defs>
</svg>
